<mxfile host="app.diagrams.net" modified="2023-04-10T03:09:53.768Z" agent="Mozilla/5.0 (Linux; Android 12; 22041216C) AppleWebKit/537.36 (KHTML, like Gecko) Chrome/108.0.0.0 Mobile Safari/537.36 EdgA/108.0.1462.48" etag="nHs1Ca47EWMLLkOsvz1z" version="21.1.5" type="github">
  <diagram name="Page-1" id="90a13364-a465-7bf4-72fc-28e22215d7a0">
    <mxGraphModel dx="449" dy="770" grid="1" gridSize="10" guides="1" tooltips="1" connect="1" arrows="1" fold="1" page="1" pageScale="1.5" pageWidth="1169" pageHeight="826" background="none" math="0" shadow="0">
      <root>
        <mxCell id="0" style=";html=1;" />
        <mxCell id="1" style=";html=1;" parent="0" />
        <mxCell id="p5bAaRWK5TY0x3n9_gSP-16" value="" style="edgeStyle=none;curved=1;rounded=0;orthogonalLoop=1;jettySize=auto;html=1;fontSize=12;startSize=8;endSize=8;exitX=0.5;exitY=0;exitDx=0;exitDy=0;" edge="1" parent="1" source="p5bAaRWK5TY0x3n9_gSP-34">
          <mxGeometry relative="1" as="geometry">
            <mxPoint x="580" y="440" as="sourcePoint" />
            <mxPoint x="580" y="300" as="targetPoint" />
          </mxGeometry>
        </mxCell>
        <mxCell id="3a17f1ce550125da-1" value="" style="whiteSpace=wrap;html=1;shadow=1;fontSize=20;fillColor=#f5f5f5;strokeColor=#666666;strokeWidth=2;dashed=1;" parent="1" vertex="1">
          <mxGeometry x="490" y="443" width="330" height="260" as="geometry" />
        </mxCell>
        <mxCell id="3a17f1ce550125da-2" value="IOC容器" style="whiteSpace=wrap;html=1;shadow=1;fontSize=18;fillColor=#f5f5f5;strokeColor=#666666;" parent="1" vertex="1">
          <mxGeometry x="860" y="433" width="170" height="280" as="geometry" />
        </mxCell>
        <mxCell id="3a17f1ce550125da-20" style="edgeStyle=elbowEdgeStyle;rounded=0;html=1;startArrow=none;startFill=0;jettySize=auto;orthogonalLoop=1;fontSize=18;elbow=vertical;" parent="1" source="3a17f1ce550125da-8" target="3a17f1ce550125da-2" edge="1">
          <mxGeometry relative="1" as="geometry">
            <Array as="points" />
          </mxGeometry>
        </mxCell>
        <mxCell id="3a17f1ce550125da-8" value="System层" style="whiteSpace=wrap;html=1;shadow=1;fontSize=18;fillColor=#f5f5f5;strokeColor=#666666;" parent="1" vertex="1">
          <mxGeometry x="520" y="478" width="270" height="46" as="geometry" />
        </mxCell>
        <mxCell id="3a17f1ce550125da-21" style="edgeStyle=elbowEdgeStyle;rounded=0;html=1;startArrow=none;startFill=0;jettySize=auto;orthogonalLoop=1;fontSize=18;elbow=vertical;" parent="1" source="3a17f1ce550125da-9" target="3a17f1ce550125da-2" edge="1">
          <mxGeometry relative="1" as="geometry" />
        </mxCell>
        <mxCell id="3a17f1ce550125da-9" value="Model层" style="whiteSpace=wrap;html=1;shadow=1;fontSize=18;fillColor=#f5f5f5;strokeColor=#666666;" parent="1" vertex="1">
          <mxGeometry x="520" y="550" width="270" height="46" as="geometry" />
        </mxCell>
        <mxCell id="p5bAaRWK5TY0x3n9_gSP-13" value="" style="edgeStyle=none;curved=1;rounded=0;orthogonalLoop=1;jettySize=auto;html=1;fontSize=12;startSize=8;endSize=8;exitX=0.5;exitY=1;exitDx=0;exitDy=0;entryX=0.75;entryY=0;entryDx=0;entryDy=0;" edge="1" parent="1" source="p5bAaRWK5TY0x3n9_gSP-28" target="3a17f1ce550125da-1">
          <mxGeometry relative="1" as="geometry">
            <mxPoint x="747" y="440" as="targetPoint" />
            <mxPoint x="820" y="420" as="sourcePoint" />
          </mxGeometry>
        </mxCell>
        <mxCell id="3a17f1ce550125da-11" value="Controller层" style="whiteSpace=wrap;html=1;shadow=1;fontSize=18;fillColor=#f5f5f5;strokeColor=#666666;" parent="1" vertex="1">
          <mxGeometry x="490" y="239" width="330" height="60" as="geometry" />
        </mxCell>
        <mxCell id="p5bAaRWK5TY0x3n9_gSP-5" value="Utility层" style="whiteSpace=wrap;html=1;shadow=1;fontSize=18;fillColor=#f5f5f5;strokeColor=#666666;" vertex="1" parent="1">
          <mxGeometry x="520" y="630" width="270" height="46" as="geometry" />
        </mxCell>
        <mxCell id="p5bAaRWK5TY0x3n9_gSP-15" value="底层" style="text;strokeColor=none;align=center;fillColor=none;html=1;verticalAlign=middle;whiteSpace=wrap;rounded=0;fontSize=16;" vertex="1" parent="1">
          <mxGeometry x="618.25" y="448" width="60" height="30" as="geometry" />
        </mxCell>
        <mxCell id="p5bAaRWK5TY0x3n9_gSP-24" value="" style="edgeStyle=segmentEdgeStyle;endArrow=classic;html=1;curved=0;rounded=0;endSize=8;startSize=8;sourcePerimeterSpacing=0;targetPerimeterSpacing=0;fontSize=12;exitX=0.5;exitY=0;exitDx=0;exitDy=0;entryX=1;entryY=0.5;entryDx=0;entryDy=0;" edge="1" parent="1" source="3a17f1ce550125da-2" target="3a17f1ce550125da-11">
          <mxGeometry width="140" relative="1" as="geometry">
            <mxPoint x="750" y="620" as="sourcePoint" />
            <mxPoint x="890" y="680" as="targetPoint" />
            <Array as="points">
              <mxPoint x="945" y="269" />
            </Array>
          </mxGeometry>
        </mxCell>
        <mxCell id="p5bAaRWK5TY0x3n9_gSP-29" value="" style="edgeStyle=none;curved=1;rounded=0;orthogonalLoop=1;jettySize=auto;html=1;fontSize=12;startSize=8;endSize=8;exitX=0.75;exitY=1;exitDx=0;exitDy=0;entryX=0.5;entryY=0;entryDx=0;entryDy=0;" edge="1" parent="1" source="3a17f1ce550125da-11" target="p5bAaRWK5TY0x3n9_gSP-28">
          <mxGeometry relative="1" as="geometry">
            <mxPoint x="692" y="443" as="targetPoint" />
            <mxPoint x="694" y="299" as="sourcePoint" />
          </mxGeometry>
        </mxCell>
        <mxCell id="p5bAaRWK5TY0x3n9_gSP-28" value="Command" style="whiteSpace=wrap;html=1;shadow=1;fontSize=18;fillColor=#f5f5f5;strokeColor=#666666;" vertex="1" parent="1">
          <mxGeometry x="678.25" y="350" width="120" height="40" as="geometry" />
        </mxCell>
        <mxCell id="p5bAaRWK5TY0x3n9_gSP-35" value="" style="edgeStyle=none;curved=1;rounded=0;orthogonalLoop=1;jettySize=auto;html=1;fontSize=12;startSize=8;endSize=8;entryX=0.5;entryY=1;entryDx=0;entryDy=0;" edge="1" parent="1" target="p5bAaRWK5TY0x3n9_gSP-34">
          <mxGeometry relative="1" as="geometry">
            <mxPoint x="580" y="440" as="sourcePoint" />
            <mxPoint x="573" y="299" as="targetPoint" />
          </mxGeometry>
        </mxCell>
        <mxCell id="p5bAaRWK5TY0x3n9_gSP-34" value="Event" style="whiteSpace=wrap;html=1;shadow=1;fontSize=18;fillColor=#f5f5f5;strokeColor=#666666;" vertex="1" parent="1">
          <mxGeometry x="520" y="350" width="120" height="40" as="geometry" />
        </mxCell>
        <mxCell id="p5bAaRWK5TY0x3n9_gSP-38" value="" style="edgeStyle=none;orthogonalLoop=1;jettySize=auto;html=1;rounded=0;fontSize=12;startSize=8;endSize=8;curved=1;exitX=1;exitY=0.5;exitDx=0;exitDy=0;" edge="1" parent="1" source="p5bAaRWK5TY0x3n9_gSP-5">
          <mxGeometry width="140" relative="1" as="geometry">
            <mxPoint x="780" y="480" as="sourcePoint" />
            <mxPoint x="860" y="653" as="targetPoint" />
            <Array as="points" />
          </mxGeometry>
        </mxCell>
        <mxCell id="p5bAaRWK5TY0x3n9_gSP-39" value="" style="edgeStyle=none;orthogonalLoop=1;jettySize=auto;html=1;rounded=0;fontSize=12;startSize=8;endSize=8;curved=1;exitX=0;exitY=0.5;exitDx=0;exitDy=0;entryX=1;entryY=0.5;entryDx=0;entryDy=0;" edge="1" parent="1" source="p5bAaRWK5TY0x3n9_gSP-28" target="p5bAaRWK5TY0x3n9_gSP-34">
          <mxGeometry width="140" relative="1" as="geometry">
            <mxPoint x="640" y="490" as="sourcePoint" />
            <mxPoint x="780" y="490" as="targetPoint" />
            <Array as="points" />
          </mxGeometry>
        </mxCell>
        <mxCell id="p5bAaRWK5TY0x3n9_gSP-41" value="" style="edgeStyle=segmentEdgeStyle;endArrow=classic;html=1;curved=0;rounded=0;endSize=8;startSize=8;sourcePerimeterSpacing=0;targetPerimeterSpacing=0;fontSize=12;exitX=0.25;exitY=0;exitDx=0;exitDy=0;entryX=1;entryY=0.5;entryDx=0;entryDy=0;" edge="1" parent="1" source="3a17f1ce550125da-2" target="p5bAaRWK5TY0x3n9_gSP-28">
          <mxGeometry width="140" relative="1" as="geometry">
            <mxPoint x="840" y="480" as="sourcePoint" />
            <mxPoint x="810" y="370" as="targetPoint" />
            <Array as="points">
              <mxPoint x="910" y="433" />
              <mxPoint x="910" y="370" />
            </Array>
          </mxGeometry>
        </mxCell>
        <mxCell id="p5bAaRWK5TY0x3n9_gSP-42" value="" style="edgeStyle=none;orthogonalLoop=1;jettySize=auto;html=1;rounded=0;fontSize=12;startSize=8;endSize=8;curved=1;entryX=1;entryY=0.25;entryDx=0;entryDy=0;" edge="1" parent="1" target="3a17f1ce550125da-8">
          <mxGeometry width="140" relative="1" as="geometry">
            <mxPoint x="860" y="490" as="sourcePoint" />
            <mxPoint x="800" y="570" as="targetPoint" />
            <Array as="points" />
          </mxGeometry>
        </mxCell>
        <mxCell id="p5bAaRWK5TY0x3n9_gSP-43" value="" style="edgeStyle=none;orthogonalLoop=1;jettySize=auto;html=1;rounded=0;fontSize=12;startSize=8;endSize=8;curved=1;entryX=1;entryY=0.25;entryDx=0;entryDy=0;" edge="1" parent="1" target="3a17f1ce550125da-9">
          <mxGeometry width="140" relative="1" as="geometry">
            <mxPoint x="860" y="560" as="sourcePoint" />
            <mxPoint x="790" y="570" as="targetPoint" />
            <Array as="points" />
          </mxGeometry>
        </mxCell>
        <mxCell id="p5bAaRWK5TY0x3n9_gSP-44" value="" style="edgeStyle=none;orthogonalLoop=1;jettySize=auto;html=1;rounded=0;fontSize=12;startSize=8;endSize=8;curved=1;exitX=0;exitY=0.75;exitDx=0;exitDy=0;" edge="1" parent="1" source="3a17f1ce550125da-2">
          <mxGeometry width="140" relative="1" as="geometry">
            <mxPoint x="890" y="780" as="sourcePoint" />
            <mxPoint x="790" y="650" as="targetPoint" />
            <Array as="points" />
          </mxGeometry>
        </mxCell>
      </root>
    </mxGraphModel>
  </diagram>
</mxfile>
